<?xml version="1.0" encoding="utf-8"?>
<!-- Generator: Adobe Illustrator 18.1.1, SVG Export Plug-In . SVG Version: 6.00 Build 0)  -->
<svg version="1.1" id="Layer_1" xmlns="http://www.w3.org/2000/svg" xmlns:xlink="http://www.w3.org/1999/xlink" x="0px" y="0px"
	 viewBox="0 0 23.8 23" enable-background="new 0 0 23.8 23" xml:space="preserve">
<g>
	<path fill="#FFFFFF" d="M22.2,9.6c-3.3,7.1-4.4,7.1-5.1,7.1h-6.4c-2.2,0-4-1.3-4.4-3.4c0-0.1-1.3-6.3-1.6-8c-0.2-0.9-0.6-1.4-2-1.4
		C2,3.9,1.5,3.4,1.5,2.7C1.5,2,2,1.5,2.7,1.5c2.4,0,4,1.2,4.4,3.4c0.3,1.7,1.6,7.9,1.6,8c0.3,1.3,1.4,1.4,2,1.4h6.1
		c0.7-0.7,2.1-3.4,3.2-5.7C20.3,8,21,7.7,21.6,8C22.2,8.3,22.4,9,22.2,9.6L22.2,9.6z M9.9,17.5c-1.1,0-2,0.9-2,2c0,1.1,0.9,2,2,2
		c1.1,0,2-0.9,2-2C11.9,18.4,11,17.5,9.9,17.5L9.9,17.5z M17.1,17.5c-1.1,0-2,0.9-2,2c0,1.1,0.9,2,2,2c1.1,0,2-0.9,2-2
		C19.1,18.4,18.2,17.5,17.1,17.5L17.1,17.5z M13.2,11"/>
</g>
</svg>
